<svg xmlns="http://www.w3.org/2000/svg" xmlns:xlink="http://www.w3.org/1999/xlink" width="500" zoomAndPan="magnify" viewBox="0 0 375 217.499994" height="290" preserveAspectRatio="xMidYMid meet" version="1.0"><defs><g/><clipPath id="4c59b32e91"><path d="M 37 138 L 112 138 L 112 175.847656 L 37 175.847656 Z M 37 138 " clip-rule="nonzero"/></clipPath><clipPath id="774dadbc14"><path d="M 86 132 L 299 132 L 299 206 L 86 206 Z M 86 132 " clip-rule="nonzero"/></clipPath><clipPath id="af2be15629"><path d="M 300.023438 136.292969 L 292.9375 216.792969 L 83.480469 198.355469 L 90.570312 117.851562 Z M 300.023438 136.292969 " clip-rule="nonzero"/></clipPath><clipPath id="d58278b5e4"><path d="M 292.921875 216.992188 L 300.007812 136.488281 L 90.550781 118.050781 L 83.464844 198.550781 Z M 292.921875 216.992188 " clip-rule="nonzero"/></clipPath><clipPath id="5ff5174852"><path d="M 57 63 L 123 63 L 123 140 L 57 140 Z M 57 63 " clip-rule="nonzero"/></clipPath><clipPath id="f5b431389d"><path d="M 54.199219 76.628906 L 107.257812 58.347656 L 129.6875 123.433594 L 76.628906 141.714844 Z M 54.199219 76.628906 " clip-rule="nonzero"/></clipPath><clipPath id="87502f51b9"><path d="M 54.199219 76.628906 L 107.257812 58.347656 L 129.6875 123.433594 L 76.628906 141.714844 Z M 54.199219 76.628906 " clip-rule="nonzero"/></clipPath></defs><path fill="#0b4142" d="M 61.488281 128.101562 C 61.488281 128.101562 61.546875 129.140625 61.261719 129.640625 C 61.101562 129.921875 61.199219 130.273438 61.476562 130.433594 C 61.757812 130.59375 62.109375 130.496094 62.273438 130.214844 C 62.675781 129.511719 62.652344 128.0625 62.652344 128.0625 C 62.640625 127.742188 62.371094 127.492188 62.050781 127.503906 C 61.730469 127.511719 61.476562 127.78125 61.488281 128.101562 " fill-opacity="1" fill-rule="evenodd"/><g clip-path="url(#4c59b32e91)"><path fill="#0b4142" d="M 110.707031 174.523438 C 110.707031 174.523438 66.515625 169.84375 38.269531 139.03125 C 38.050781 138.796875 37.683594 138.777344 37.445312 138.996094 C 37.207031 139.210938 37.191406 139.578125 37.410156 139.8125 C 65.945312 170.9375 110.585938 175.675781 110.585938 175.675781 C 110.90625 175.710938 111.191406 175.480469 111.226562 175.160156 C 111.261719 174.84375 111.027344 174.558594 110.707031 174.523438 " fill-opacity="1" fill-rule="evenodd"/></g><path fill="#0b4142" d="M 116.675781 25.800781 C 103.027344 17.308594 83.082031 15.824219 63.210938 21.234375 C 30.78125 30.070312 8.335938 64.757812 16.871094 100.847656 C 18.839844 109.171875 21.679688 116.496094 25.320312 123.09375 C 25.476562 123.375 25.828125 123.476562 26.109375 123.324219 C 26.394531 123.167969 26.496094 122.816406 26.339844 122.535156 C 22.746094 116.023438 19.945312 108.792969 18.003906 100.582031 C 9.617188 65.125 31.65625 31.035156 63.519531 22.355469 C 83.070312 17.03125 102.730469 18.429688 116.113281 26.792969 C 112.597656 33.230469 111.007812 40.4375 110.617188 48.714844 C 110.078125 60.257812 116.816406 65.214844 123.058594 64.898438 C 126.851562 64.703125 130.496094 62.558594 132.34375 58.71875 C 133.554688 56.195312 133.988281 52.929688 133.140625 48.996094 C 131.003906 39.09375 125.429688 31.582031 117.667969 26.4375 C 121.277344 20.242188 126.789062 14.777344 134.902344 9.757812 C 148.253906 1.492188 171.257812 3.707031 181.007812 22.765625 C 187.578125 35.601562 188.136719 55.992188 175.949219 85.863281 C 175.828125 86.160156 175.972656 86.5 176.265625 86.617188 C 176.566406 86.738281 176.90625 86.597656 177.027344 86.300781 C 189.398438 55.976562 188.714844 35.265625 182.046875 22.238281 C 171.945312 2.5 148.117188 0.210938 134.285156 8.769531 C 126.003906 13.898438 120.371094 19.476562 116.675781 25.800781 Z M 117.105469 27.433594 C 113.703125 33.703125 112.15625 40.714844 111.78125 48.769531 C 111.285156 59.347656 117.277344 64.03125 123 63.738281 C 128.6875 63.445312 133.945312 58.234375 132.003906 49.238281 C 129.9375 39.667969 124.574219 32.414062 117.105469 27.433594 " fill-opacity="1" fill-rule="evenodd"/><path fill="#0b4142" d="M 37.628906 140 C 37.863281 140.117188 38.144531 140.0625 38.320312 139.871094 C 38.496094 139.675781 38.519531 139.390625 38.378906 139.171875 C 38.039062 138.632812 36.78125 136.730469 36.320312 135.800781 C 36.042969 135.242188 35.535156 135.078125 34.933594 135.207031 C 34.382812 135.324219 33.726562 135.738281 33.351562 136 C 32.945312 136.28125 32.828125 136.808594 33.402344 137.398438 C 34.3125 138.34375 37.628906 140 37.628906 140 Z M 35.289062 136.332031 C 35.496094 136.746094 35.851562 137.34375 36.214844 137.933594 C 35.632812 137.601562 35.03125 137.230469 34.597656 136.902344 C 34.519531 136.84375 34.445312 136.777344 34.375 136.714844 C 34.507812 136.628906 34.65625 136.546875 34.808594 136.476562 C 34.921875 136.421875 35.035156 136.378906 35.144531 136.351562 C 35.1875 136.339844 35.253906 136.335938 35.289062 136.332031 " fill-opacity="1" fill-rule="evenodd"/><path fill="#0b4142" d="M 33.140625 134.402344 C 33.171875 134.417969 33.214844 134.441406 33.230469 134.457031 C 33.710938 134.960938 34.597656 135.941406 35.164062 136.257812 C 35.441406 136.410156 35.796875 136.3125 35.953125 136.035156 C 36.109375 135.753906 36.011719 135.398438 35.730469 135.246094 C 35.238281 134.972656 34.492188 134.097656 34.078125 133.660156 C 34.050781 133.632812 34.023438 133.609375 33.996094 133.585938 C 33.886719 133.195312 33.691406 132.90625 33.445312 132.695312 C 33.039062 132.347656 32.464844 132.203125 31.796875 132.226562 C 30.519531 132.273438 28.851562 132.964844 27.945312 133.121094 C 26.535156 133.367188 25.054688 133.433594 23.636719 133.460938 C 22.34375 133.480469 21.199219 133.292969 19.960938 133.871094 C 18.558594 134.523438 16.917969 135.542969 16.347656 137.105469 C 16.191406 137.539062 16.136719 138.003906 16.003906 138.445312 C 15.757812 139.273438 15.25 139.96875 15.035156 140.839844 C 14.910156 141.328125 14.964844 141.972656 15.140625 142.625 C 15.382812 143.523438 15.847656 144.445312 16.25 144.964844 C 16.804688 145.6875 17.746094 146.085938 18.5 146.484375 C 18.75 146.617188 18.953125 146.90625 19.183594 147.074219 C 19.839844 147.550781 20.722656 147.761719 21.488281 147.953125 C 22.851562 148.289062 24.15625 147.566406 25.289062 147.003906 C 27.773438 145.773438 29.566406 143.140625 30.820312 140.789062 C 31.363281 139.773438 31.542969 138.402344 31.828125 137.101562 C 32.058594 136.042969 32.351562 135.023438 33.140625 134.402344 Z M 32.46875 133.453125 C 32.289062 133.386719 32.074219 133.378906 31.839844 133.382812 C 30.613281 133.429688 29.015625 134.113281 28.144531 134.265625 C 26.675781 134.519531 25.132812 134.59375 23.660156 134.621094 C 22.535156 134.636719 21.53125 134.417969 20.453125 134.921875 C 19.304688 135.457031 17.90625 136.222656 17.445312 137.5 C 17.292969 137.917969 17.246094 138.355469 17.121094 138.78125 C 16.875 139.589844 16.375 140.265625 16.164062 141.117188 C 16.078125 141.453125 16.144531 141.882812 16.265625 142.324219 C 16.464844 143.066406 16.839844 143.828125 17.171875 144.257812 C 17.625 144.851562 18.429688 145.132812 19.042969 145.460938 C 19.339844 145.617188 19.597656 145.9375 19.871094 146.136719 C 20.40625 146.527344 21.144531 146.671875 21.769531 146.828125 C 22.269531 146.949219 22.75 146.855469 23.214844 146.691406 C 23.761719 146.5 24.285156 146.207031 24.773438 145.964844 C 27.042969 144.835938 28.648438 142.394531 29.792969 140.242188 C 30.292969 139.3125 30.429688 138.046875 30.691406 136.851562 C 30.988281 135.496094 31.441406 134.234375 32.46875 133.453125 " fill-opacity="1" fill-rule="evenodd"/><path fill="#0b4142" d="M 33.597656 136.207031 C 33.597656 136.207031 32.863281 136.148438 32.113281 136.351562 C 31.546875 136.503906 30.984375 136.808594 30.640625 137.328125 C 30.46875 137.59375 30.542969 137.957031 30.808594 138.128906 C 31.078125 138.304688 31.4375 138.230469 31.613281 137.964844 C 31.796875 137.6875 32.117188 137.554688 32.417969 137.472656 C 32.972656 137.324219 33.507812 137.363281 33.507812 137.363281 C 33.828125 137.386719 34.109375 137.148438 34.132812 136.828125 C 34.160156 136.507812 33.917969 136.230469 33.597656 136.207031 " fill-opacity="1" fill-rule="evenodd"/><path fill="#0b4142" d="M 39.105469 136.179688 C 40.234375 136.875 41.066406 138.058594 41.945312 139.117188 C 42.96875 140.339844 44.0625 141.398438 45.5625 141.664062 C 46.214844 141.777344 46.886719 141.453125 47.511719 141.226562 C 47.859375 141.097656 48.296875 140.914062 48.609375 140.71875 C 49.707031 140.035156 50.007812 139.027344 50.09375 137.925781 C 50.164062 137.054688 50.074219 136.121094 50.371094 135.332031 C 50.5 134.996094 50.722656 134.722656 50.949219 134.453125 C 51.242188 134.097656 51.542969 133.746094 51.75 133.335938 C 52.542969 131.753906 52.894531 129.0625 52.222656 127.390625 C 51.871094 126.519531 51.203125 125.855469 50.410156 125.328125 C 49.699219 124.847656 48.894531 124.476562 48.191406 124.128906 C 47.390625 123.730469 46.53125 122.976562 45.617188 122.503906 C 44.886719 122.128906 44.125 121.917969 43.335938 122.0625 C 42.652344 122.1875 42.082031 122.488281 41.496094 122.828125 C 41.125 123.042969 40.777344 123.238281 40.488281 123.5625 C 39.554688 124.609375 39.238281 125.921875 38.960938 127.25 C 38.722656 128.386719 38.523438 129.539062 37.789062 130.449219 C 37.636719 130.636719 37.386719 130.765625 37.109375 130.878906 C 36.574219 131.105469 35.945312 131.242188 35.519531 131.367188 C 34.542969 131.660156 34.019531 132.234375 33.65625 132.753906 C 33.476562 133.011719 33.355469 133.253906 33.214844 133.398438 C 33.007812 133.601562 32.984375 133.925781 33.15625 134.15625 C 33.640625 134.800781 34.589844 135.84375 35.789062 136.113281 C 36.679688 136.320312 37.671875 136.234375 38.417969 136.183594 C 38.691406 136.167969 39.042969 136.175781 39.105469 136.179688 Z M 34.359375 133.800781 C 34.398438 133.742188 34.4375 133.679688 34.480469 133.617188 C 34.734375 133.222656 35.078125 132.710938 35.855469 132.476562 C 36.308594 132.34375 36.980469 132.191406 37.558594 131.953125 C 38.027344 131.753906 38.441406 131.496094 38.695312 131.175781 C 39.542969 130.121094 39.824219 128.804688 40.097656 127.484375 C 40.335938 126.355469 40.566406 125.222656 41.359375 124.335938 C 41.5625 124.101562 41.820312 123.984375 42.082031 123.832031 C 42.550781 123.558594 43 123.300781 43.542969 123.203125 C 44.230469 123.078125 44.878906 123.390625 45.5 123.769531 C 46.265625 124.238281 46.988281 124.824219 47.671875 125.164062 C 48.328125 125.496094 49.089844 125.839844 49.761719 126.289062 C 50.355469 126.6875 50.878906 127.167969 51.140625 127.820312 C 51.707031 129.230469 51.375 131.484375 50.707031 132.8125 C 50.542969 133.148438 50.289062 133.425781 50.050781 133.714844 C 49.746094 134.082031 49.457031 134.464844 49.285156 134.925781 C 48.949219 135.8125 49.011719 136.859375 48.9375 137.832031 C 48.875 138.574219 48.730469 139.277344 47.992188 139.734375 C 47.742188 139.890625 47.390625 140.03125 47.113281 140.136719 C 46.855469 140.226562 46.585938 140.351562 46.316406 140.441406 C 46.132812 140.503906 45.949219 140.550781 45.765625 140.519531 C 44.53125 140.304688 43.679688 139.378906 42.839844 138.371094 C 41.867188 137.207031 40.929688 135.925781 39.679688 135.164062 C 39.496094 135.054688 39.148438 134.988281 38.6875 135.007812 C 38.011719 135.035156 36.96875 135.195312 36.050781 134.984375 C 35.332031 134.820312 34.75 134.265625 34.359375 133.800781 " fill-opacity="1" fill-rule="evenodd"/><path fill="#0b4142" d="M 35.601562 131.578125 C 35.496094 131.457031 35.492188 131.246094 35.464844 131.035156 C 35.414062 130.660156 35.371094 130.265625 35.265625 129.984375 C 34.65625 128.378906 34.652344 126.5 35.015625 124.808594 C 35.214844 123.898438 35.648438 123.027344 35.84375 122.125 C 36.082031 121.015625 36.207031 119.90625 36.484375 118.804688 C 36.644531 118.160156 37.070312 117.441406 37.644531 116.929688 C 38.160156 116.472656 38.792969 116.175781 39.46875 116.359375 C 40.453125 116.628906 41.664062 117.152344 42.394531 117.886719 C 42.972656 118.464844 43.671875 119.207031 44.4375 119.550781 C 44.917969 119.765625 45.421875 119.769531 45.921875 119.738281 C 46.246094 119.71875 46.574219 119.671875 46.871094 119.78125 C 47.8125 120.121094 48.441406 120.726562 49.203125 121.390625 C 49.652344 121.785156 50.179688 122.046875 50.621094 122.328125 C 50.835938 122.46875 51.03125 122.601562 51.132812 122.8125 C 51.222656 123.011719 51.210938 123.265625 51.101562 123.621094 C 51.042969 123.804688 50.347656 124.832031 49.753906 125.214844 C 49.484375 125.386719 49.410156 125.75 49.582031 126.019531 C 49.757812 126.285156 50.121094 126.363281 50.386719 126.1875 C 51.207031 125.65625 52.136719 124.21875 52.210938 123.960938 C 52.398438 123.371094 52.386719 122.917969 52.273438 122.554688 C 52.15625 122.164062 51.917969 121.859375 51.597656 121.601562 C 51.148438 121.238281 50.5 120.984375 49.96875 120.519531 C 49.09375 119.753906 48.351562 119.078125 47.265625 118.691406 C 46.894531 118.554688 46.503906 118.542969 46.101562 118.566406 C 45.703125 118.585938 45.296875 118.664062 44.917969 118.492188 C 44.273438 118.203125 43.703125 117.550781 43.222656 117.066406 C 42.351562 116.203125 40.9375 115.554688 39.773438 115.242188 C 38.910156 115.007812 38.074219 115.21875 37.355469 115.691406 C 36.359375 116.34375 35.605469 117.507812 35.355469 118.523438 C 35.078125 119.640625 34.949219 120.761719 34.707031 121.878906 C 34.511719 122.785156 34.074219 123.652344 33.878906 124.5625 C 33.46875 126.46875 33.488281 128.589844 34.175781 130.398438 C 34.28125 130.664062 34.28125 131.058594 34.34375 131.40625 C 34.40625 131.777344 34.523438 132.105469 34.714844 132.328125 C 34.921875 132.574219 35.289062 132.601562 35.535156 132.394531 C 35.78125 132.1875 35.808594 131.820312 35.601562 131.578125 " fill-opacity="1" fill-rule="evenodd"/><path fill="#0b4142" d="M 33.75 132.9375 C 33.730469 132.886719 33.699219 132.8125 33.679688 132.765625 C 33.621094 132.59375 33.570312 132.4375 33.539062 132.375 C 33.160156 131.613281 32.675781 130.816406 32.203125 130.101562 C 30.660156 127.761719 29.109375 125.628906 26.832031 123.949219 C 25.929688 123.289062 25.011719 123.082031 24.160156 123.207031 C 22.917969 123.394531 21.804688 124.328125 21.171875 125.765625 C 20.652344 126.941406 20.195312 128.183594 19.679688 129.347656 C 18.933594 131.035156 18.894531 132.542969 19.625 134.46875 C 19.738281 134.769531 20.074219 134.921875 20.375 134.808594 C 20.675781 134.695312 20.828125 134.359375 20.714844 134.0625 C 20.109375 132.464844 20.128906 131.214844 20.746094 129.816406 C 21.257812 128.652344 21.714844 127.410156 22.234375 126.234375 C 22.6875 125.203125 23.445312 124.488281 24.335938 124.355469 C 24.910156 124.269531 25.527344 124.433594 26.140625 124.882812 C 28.304688 126.476562 29.765625 128.515625 31.230469 130.738281 C 31.679688 131.414062 32.140625 132.167969 32.496094 132.886719 C 32.554688 133.003906 32.695312 133.488281 32.839844 133.679688 C 33.007812 133.902344 33.214844 133.976562 33.390625 133.984375 C 33.710938 133.988281 33.980469 133.734375 33.988281 133.414062 C 33.992188 133.21875 33.898438 133.042969 33.75 132.9375 " fill-opacity="1" fill-rule="evenodd"/><path fill="#0b4142" d="M 23.617188 133.914062 C 23.675781 133.828125 23.757812 133.703125 23.78125 133.679688 C 24.257812 133.207031 24.6875 132.832031 25.359375 132.652344 C 26.285156 132.40625 27.152344 132.765625 28.078125 132.875 C 28.300781 132.902344 28.53125 132.890625 28.765625 132.878906 C 28.976562 132.867188 29.191406 132.839844 29.390625 132.921875 C 29.59375 133 30.035156 133.078125 30.371094 133.351562 C 30.617188 133.550781 30.984375 133.519531 31.1875 133.269531 C 31.390625 133.023438 31.359375 132.660156 31.109375 132.457031 C 30.667969 132.089844 30.09375 131.949219 29.828125 131.84375 C 29.511719 131.71875 29.183594 131.695312 28.855469 131.710938 C 28.640625 131.71875 28.425781 131.75 28.21875 131.722656 C 27.140625 131.59375 26.136719 131.246094 25.0625 131.53125 C 24.175781 131.765625 23.59375 132.234375 22.964844 132.851562 C 22.902344 132.914062 22.699219 133.164062 22.578125 133.378906 C 22.492188 133.523438 22.445312 133.664062 22.425781 133.757812 C 22.394531 133.96875 22.453125 134.128906 22.53125 134.242188 C 22.617188 134.363281 22.742188 134.457031 22.925781 134.496094 C 23.242188 134.554688 23.546875 134.351562 23.609375 134.039062 C 23.617188 133.996094 23.621094 133.957031 23.617188 133.914062 Z M 23.292969 133.402344 L 23.300781 133.410156 L 23.300781 133.40625 Z M 23.179688 133.363281 C 23.214844 133.371094 23.253906 133.382812 23.285156 133.402344 C 23.253906 133.382812 23.21875 133.371094 23.179688 133.363281 " fill-opacity="1" fill-rule="evenodd"/><path fill="#0b4142" d="M 25.542969 123.917969 C 25.703125 123.578125 26.007812 123.417969 26.269531 123.308594 C 26.535156 123.195312 26.785156 123.121094 26.945312 123.042969 C 27.261719 122.886719 27.578125 122.949219 27.898438 122.988281 C 28.226562 123.027344 28.558594 123.070312 28.898438 123.039062 C 29.804688 122.953125 30.683594 122.726562 31.585938 122.640625 C 31.847656 122.613281 32.566406 122.46875 33.25 122.535156 C 33.710938 122.578125 34.195312 122.703125 34.269531 123.238281 C 34.316406 123.554688 34.613281 123.773438 34.929688 123.730469 C 35.246094 123.683594 35.46875 123.390625 35.421875 123.070312 C 35.285156 122.121094 34.652344 121.65625 33.871094 121.464844 C 32.96875 121.242188 31.835938 121.449219 31.476562 121.484375 C 30.574219 121.570312 29.691406 121.796875 28.785156 121.882812 C 28.457031 121.914062 28.136719 121.839844 27.816406 121.808594 C 27.355469 121.761719 26.894531 121.773438 26.429688 122 C 26.234375 122.097656 25.914062 122.179688 25.589844 122.34375 C 25.164062 122.558594 24.746094 122.882812 24.488281 123.429688 C 24.351562 123.71875 24.476562 124.0625 24.769531 124.199219 C 25.058594 124.335938 25.402344 124.210938 25.542969 123.917969 " fill-opacity="1" fill-rule="evenodd"/><path fill="#0b4142" d="M 25.511719 107.691406 C 25.511719 107.691406 27.273438 121.34375 33.171875 134 C 33.308594 134.292969 33.65625 134.417969 33.945312 134.28125 C 34.238281 134.144531 34.363281 133.800781 34.226562 133.511719 C 28.402344 121.015625 26.667969 107.539062 26.667969 107.539062 C 26.625 107.222656 26.335938 107 26.015625 107.039062 C 25.699219 107.082031 25.472656 107.375 25.511719 107.691406 " fill-opacity="1" fill-rule="evenodd"/><path fill="#0b4142" d="M 25.5625 117.027344 C 25.5625 117.027344 27.046875 117.175781 27.644531 118.207031 C 27.804688 118.484375 28.164062 118.582031 28.441406 118.421875 C 28.71875 118.261719 28.8125 117.90625 28.652344 117.628906 C 27.792969 116.148438 25.699219 115.878906 25.699219 115.878906 C 25.378906 115.839844 25.089844 116.066406 25.050781 116.386719 C 25.015625 116.703125 25.246094 116.992188 25.5625 117.027344 " fill-opacity="1" fill-rule="evenodd"/><path fill="#0b4142" d="M 28.238281 112.003906 C 28.238281 112.003906 27.078125 112.5 26.773438 114.3125 C 26.71875 114.625 26.933594 114.925781 27.25 114.976562 C 27.566406 115.03125 27.867188 114.820312 27.917969 114.503906 C 28.105469 113.402344 28.734375 113.054688 28.734375 113.054688 C 29.023438 112.917969 29.148438 112.574219 29.011719 112.285156 C 28.875 111.992188 28.527344 111.867188 28.238281 112.003906 " fill-opacity="1" fill-rule="evenodd"/><path fill="#0b4142" d="M 24.589844 110.449219 C 24.589844 110.449219 25.539062 110.652344 26.171875 111.613281 C 26.347656 111.882812 26.707031 111.957031 26.976562 111.78125 C 27.246094 111.605469 27.320312 111.246094 27.140625 110.976562 C 26.222656 109.574219 24.816406 109.3125 24.816406 109.3125 C 24.5 109.25 24.191406 109.453125 24.132812 109.769531 C 24.066406 110.082031 24.273438 110.386719 24.589844 110.449219 " fill-opacity="1" fill-rule="evenodd"/><path fill="#0b4142" d="M 27.933594 112.34375 C 27.890625 112.515625 27.933594 112.695312 28.042969 112.835938 C 28.210938 113.046875 28.535156 113.203125 28.960938 113.21875 C 29.589844 113.238281 30.472656 112.976562 30.722656 112.808594 C 31.054688 112.585938 31.25 112.15625 31.210938 111.679688 C 31.164062 111.074219 30.742188 110.429688 29.957031 110.304688 C 29.34375 110.210938 28.839844 110.546875 28.492188 111.046875 C 28.109375 111.605469 27.933594 112.34375 27.933594 112.34375 Z M 30.042969 111.863281 C 29.898438 111.9375 29.566406 112.015625 29.261719 112.046875 C 29.3125 111.933594 29.375 111.816406 29.453125 111.707031 C 29.539062 111.578125 29.625 111.429688 29.78125 111.453125 C 29.863281 111.464844 29.925781 111.503906 29.96875 111.554688 C 30.035156 111.640625 30.042969 111.816406 30.042969 111.863281 " fill-opacity="1" fill-rule="evenodd"/><path fill="#0b4142" d="M 25.550781 108.027344 C 25.675781 108.152344 25.855469 108.207031 26.03125 108.183594 C 26.296875 108.152344 26.597656 107.949219 26.828125 107.59375 C 27.167969 107.066406 27.390625 106.175781 27.375 105.875 C 27.355469 105.476562 27.082031 105.089844 26.65625 104.878906 C 26.109375 104.609375 25.335938 104.636719 24.828125 105.253906 C 24.433594 105.730469 24.464844 106.332031 24.71875 106.886719 C 25.003906 107.5 25.550781 108.027344 25.550781 108.027344 Z M 26.214844 105.976562 C 26.203125 106.136719 26.105469 106.460938 25.972656 106.738281 C 25.902344 106.632812 25.832031 106.519531 25.777344 106.402344 C 25.714844 106.261719 25.625 106.109375 25.726562 105.988281 C 25.777344 105.925781 25.84375 105.890625 25.914062 105.882812 C 26.019531 105.867188 26.171875 105.949219 26.214844 105.976562 " fill-opacity="1" fill-rule="evenodd"/><path fill="#0b4142" d="M 24.699219 110.515625 C 24.941406 110.441406 25.109375 110.21875 25.109375 109.964844 C 25.117188 109.46875 24.796875 108.851562 24.414062 108.421875 C 24.128906 108.097656 23.808594 107.890625 23.601562 107.835938 C 23.253906 107.742188 22.824219 107.816406 22.472656 108.054688 C 21.964844 108.394531 21.621094 109.035156 21.917969 109.789062 C 22.144531 110.367188 22.6875 110.632812 23.296875 110.679688 C 23.96875 110.734375 24.699219 110.515625 24.699219 110.515625 Z M 23.273438 108.949219 C 23.308594 108.976562 23.457031 109.09375 23.542969 109.191406 C 23.628906 109.289062 23.71875 109.398438 23.792969 109.515625 C 23.664062 109.527344 23.523438 109.535156 23.386719 109.523438 C 23.230469 109.511719 23.058594 109.511719 23 109.367188 C 22.9375 109.214844 23.019531 109.085938 23.121094 109.015625 C 23.171875 108.980469 23.226562 108.949219 23.273438 108.949219 " fill-opacity="1" fill-rule="evenodd"/><path fill="#0b4142" d="M 26.011719 117.042969 C 26.234375 116.925781 26.355469 116.675781 26.304688 116.429688 C 26.199219 115.859375 25.742188 115.316406 25.28125 114.992188 C 24.914062 114.734375 24.535156 114.628906 24.332031 114.636719 C 23.316406 114.691406 22.410156 115.765625 23.140625 116.890625 C 23.480469 117.410156 24.0625 117.5625 24.671875 117.488281 C 25.339844 117.40625 26.011719 117.042969 26.011719 117.042969 Z M 24.351562 115.804688 C 24.410156 115.835938 24.664062 115.96875 24.808594 116.101562 C 24.855469 116.148438 24.898438 116.191406 24.941406 116.238281 C 24.8125 116.28125 24.671875 116.320312 24.527344 116.335938 C 24.371094 116.355469 24.203125 116.390625 24.117188 116.257812 C 23.976562 116.039062 24.152344 115.835938 24.351562 115.804688 " fill-opacity="1" fill-rule="evenodd"/><path fill="#0b4142" d="M 58.453125 134.015625 C 58.453125 134.015625 56.261719 157.226562 84.421875 169.308594 C 84.71875 169.4375 85.058594 169.300781 85.1875 169.007812 C 85.316406 168.714844 85.175781 168.371094 84.882812 168.246094 C 57.59375 156.539062 59.613281 134.125 59.613281 134.125 C 59.644531 133.804688 59.40625 133.519531 59.089844 133.492188 C 58.769531 133.460938 58.484375 133.699219 58.453125 134.015625 " fill-opacity="1" fill-rule="evenodd"/><path fill="#0b4142" d="M 37.761719 163.039062 C 37.761719 163.039062 48.503906 153.417969 60.820312 158.519531 C 61.121094 158.640625 61.460938 158.5 61.582031 158.207031 C 61.707031 157.910156 61.566406 157.570312 61.269531 157.445312 C 48.300781 152.074219 36.984375 162.175781 36.984375 162.175781 C 36.746094 162.390625 36.726562 162.757812 36.941406 162.996094 C 37.15625 163.230469 37.523438 163.253906 37.761719 163.039062 " fill-opacity="1" fill-rule="evenodd"/><path fill="#0b4142" d="M 58.550781 134.5 C 58.671875 134.652344 58.855469 134.734375 59.046875 134.722656 C 59.144531 134.714844 59.296875 134.679688 59.480469 134.589844 C 59.71875 134.472656 60.066406 134.246094 60.394531 133.976562 C 60.734375 133.703125 61.050781 133.382812 61.238281 133.105469 C 61.355469 132.925781 61.425781 132.753906 61.453125 132.601562 C 61.503906 132.335938 61.441406 132.0625 61.242188 131.804688 C 61 131.488281 60.457031 131.160156 59.773438 130.910156 C 59.296875 130.734375 58.824219 130.445312 58.207031 130.511719 C 57.746094 130.5625 57.476562 130.765625 57.316406 131.023438 C 57.175781 131.253906 57.121094 131.558594 57.175781 131.910156 C 57.335938 132.917969 58.550781 134.5 58.550781 134.5 Z M 60.273438 132.472656 C 60.242188 132.515625 60.195312 132.5625 60.148438 132.617188 C 60.011719 132.773438 59.839844 132.929688 59.660156 133.078125 C 59.515625 133.195312 59.335938 133.3125 59.1875 133.40625 C 58.941406 133.054688 58.589844 132.515625 58.410156 132.03125 C 58.378906 131.945312 58.351562 131.863281 58.335938 131.78125 C 58.328125 131.746094 58.324219 131.703125 58.320312 131.667969 L 58.332031 131.667969 C 58.535156 131.644531 58.703125 131.710938 58.863281 131.78125 C 59.035156 131.855469 59.203125 131.9375 59.371094 131.996094 C 59.648438 132.101562 59.898438 132.210938 60.089844 132.328125 C 60.152344 132.367188 60.222656 132.429688 60.273438 132.472656 " fill-opacity="1" fill-rule="evenodd"/><path fill="#0b4142" d="M 58.59375 130.917969 C 58.59375 130.917969 57.941406 128.816406 59.574219 127.78125 C 60.796875 127.003906 61.582031 126.582031 62.054688 126.34375 C 62.332031 126.914062 62.644531 127.605469 62.84375 128.296875 C 62.996094 128.835938 63.085938 129.375 62.988281 129.835938 C 62.902344 130.253906 62.609375 130.589844 62.285156 130.859375 C 61.714844 131.335938 61.019531 131.621094 60.777344 131.707031 C 60.472656 131.816406 60.316406 132.148438 60.425781 132.449219 C 60.535156 132.753906 60.867188 132.910156 61.167969 132.800781 C 61.472656 132.691406 62.328125 132.339844 63.03125 131.75 C 63.558594 131.308594 63.988281 130.742188 64.128906 130.070312 C 64.261719 129.445312 64.171875 128.710938 63.960938 127.976562 C 63.679688 126.988281 63.183594 125.996094 62.847656 125.316406 C 62.78125 125.175781 62.65625 125.070312 62.507812 125.019531 C 62.359375 124.972656 62.195312 124.980469 62.058594 125.054688 C 61.816406 125.179688 60.953125 125.53125 58.949219 126.804688 C 56.625 128.277344 57.476562 131.246094 57.476562 131.246094 C 57.566406 131.554688 57.894531 131.726562 58.199219 131.636719 C 58.507812 131.546875 58.683594 131.226562 58.59375 130.917969 " fill-opacity="1" fill-rule="evenodd"/><path fill="#0b4142" d="M 60.292969 128.109375 C 60.292969 128.109375 60.324219 128.507812 60.199219 128.765625 C 60.058594 129.054688 60.179688 129.402344 60.46875 129.542969 C 60.757812 129.679688 61.105469 129.558594 61.246094 129.269531 C 61.480469 128.785156 61.453125 128.050781 61.453125 128.050781 C 61.4375 127.730469 61.164062 127.484375 60.84375 127.503906 C 60.523438 127.519531 60.277344 127.789062 60.292969 128.109375 " fill-opacity="1" fill-rule="evenodd"/><path fill="#0b4142" d="M 45.503906 157.652344 C 45.835938 155.753906 45.410156 154.34375 44.617188 153.367188 C 43.585938 152.101562 41.886719 151.554688 40.203125 151.6875 C 38.539062 151.824219 36.902344 152.621094 35.980469 153.976562 C 34.589844 156.015625 33.953125 157.617188 33.390625 159.109375 C 32.855469 160.527344 32.394531 161.84375 31.359375 163.371094 C 31.257812 163.519531 31.234375 163.710938 31.292969 163.882812 C 31.351562 164.054688 31.488281 164.1875 31.660156 164.246094 C 38.34375 166.453125 43.011719 166.242188 45.855469 165.132812 C 47.914062 164.324219 49.070312 163.03125 49.441406 161.78125 C 49.863281 160.367188 49.164062 159.363281 48.132812 158.683594 C 47.273438 158.121094 46.171875 157.804688 45.503906 157.652344 Z M 44.246094 157.96875 C 44.207031 158.128906 44.238281 158.296875 44.328125 158.429688 C 44.421875 158.566406 44.566406 158.65625 44.730469 158.683594 C 44.730469 158.683594 46.355469 158.910156 47.492188 159.652344 C 48.101562 160.050781 48.574219 160.617188 48.328125 161.453125 C 48.03125 162.445312 47.066406 163.410156 45.433594 164.050781 C 42.847656 165.0625 38.675781 165.21875 32.738281 163.371094 C 33.554688 162.027344 33.992188 160.816406 34.480469 159.519531 C 35.015625 158.09375 35.621094 156.570312 36.941406 154.628906 C 37.675781 153.558594 38.980469 152.953125 40.292969 152.847656 C 41.59375 152.742188 42.917969 153.125 43.714844 154.101562 C 44.40625 154.949219 44.675781 156.226562 44.246094 157.96875 " fill-opacity="1" fill-rule="evenodd"/><g clip-path="url(#774dadbc14)"><g clip-path="url(#af2be15629)"><g clip-path="url(#d58278b5e4)"><path fill="#0b4142" d="M 296.867188 153.65625 C 296.855469 153.765625 296.832031 153.875 296.800781 153.988281 C 296.304688 155.765625 294.03125 155.804688 292.523438 155.953125 C 289.71875 156.242188 286.929688 156.125 284.113281 155.945312 C 280.574219 155.722656 277.027344 155.324219 273.515625 154.921875 C 274.292969 154.316406 275.28125 154.039062 276.132812 153.496094 C 277.265625 152.769531 278.457031 152.097656 279.496094 151.238281 C 280.371094 150.515625 281.265625 149.8125 282.195312 149.160156 C 283.539062 148.214844 284.511719 147.042969 286.082031 146.414062 C 287.445312 145.871094 289.078125 145.53125 290.53125 145.875 C 291.484375 146.101562 292.230469 146.761719 292.644531 147.640625 C 292.851562 148.074219 292.972656 148.546875 293.03125 149.027344 C 293.085938 149.496094 292.976562 150.082031 293.375 150.4375 C 293.785156 150.804688 294.570312 150.691406 295.074219 150.933594 C 296.117188 151.425781 297.007812 152.472656 296.867188 153.65625 Z M 276.742188 168.488281 C 276.722656 168.691406 276.683594 168.894531 276.617188 169.09375 C 276.347656 169.902344 275.597656 170.421875 274.609375 170.476562 C 274.117188 170.503906 273.460938 170.320312 273.164062 170.832031 C 272.792969 171.46875 273.230469 172.265625 273.03125 172.960938 C 272.734375 174.007812 271.679688 174.410156 270.691406 174.527344 C 268.246094 174.816406 266.1875 173.855469 264.496094 172.132812 C 263.214844 170.824219 262.160156 169.296875 261.378906 167.640625 C 260.566406 165.902344 259.832031 163.917969 259.78125 161.984375 C 260.394531 162.113281 261.046875 162.335938 261.671875 162.386719 C 264.140625 162.597656 266.695312 162.820312 269.175781 163.160156 C 270.882812 163.398438 272.648438 163.644531 274.113281 164.433594 C 275.496094 165.175781 276.886719 166.847656 276.742188 168.488281 Z M 258.476562 142.160156 C 258.46875 142.273438 258.453125 142.390625 258.4375 142.5 C 258.296875 143.476562 257.765625 144.363281 256.871094 145.125 C 255.167969 146.582031 253.125 146.578125 251.148438 146.570312 L 250.683594 146.566406 C 249.058594 146.566406 247.421875 146.480469 245.84375 146.394531 C 244.640625 146.332031 243.144531 146.25 241.746094 146.230469 C 241.421875 146.226562 241.097656 146.214844 240.785156 146.265625 C 240.757812 145.757812 241.21875 145.007812 241.433594 144.539062 C 243.195312 140.65625 245.792969 136.636719 249.863281 134.855469 C 250.253906 134.6875 250.652344 134.539062 251.0625 134.421875 C 252.855469 133.914062 255.398438 134.328125 255.886719 136.453125 C 256.035156 137.101562 255.980469 137.777344 255.886719 138.433594 C 256.566406 138.894531 257.417969 139.234375 257.945312 139.882812 C 258.460938 140.511719 258.546875 141.378906 258.476562 142.160156 Z M 244.523438 174.753906 C 244.429688 175.8125 243.871094 176.78125 243.0625 177.285156 C 242.109375 177.878906 240.785156 177.414062 239.859375 178.070312 C 239.308594 178.453125 239.363281 179.140625 239.023438 179.675781 C 238.269531 180.875 236.621094 181.230469 235.300781 180.953125 C 234.105469 180.703125 233.109375 179.898438 232.210938 179.070312 C 229.074219 176.1875 226.988281 171.367188 227.242188 167.0625 C 227.242188 167.023438 228.757812 167.25 228.925781 167.269531 C 229.40625 167.328125 229.886719 167.382812 230.367188 167.429688 L 231.304688 167.527344 C 233.085938 167.710938 234.925781 167.898438 236.6875 168.277344 C 240.738281 169.144531 243.300781 170.816406 244.304688 173.234375 C 244.496094 173.695312 244.570312 174.222656 244.523438 174.753906 Z M 223.953125 138.378906 C 224.0625 138.613281 224.144531 138.863281 224.203125 139.132812 C 224.335938 139.753906 224.398438 140.390625 224.382812 141.027344 C 224.371094 141.53125 224.75 141.445312 225.121094 141.449219 C 225.640625 141.453125 226.234375 141.550781 226.617188 141.9375 C 226.859375 142.183594 226.984375 142.523438 227.042969 142.863281 C 227.269531 144.207031 226.457031 145.394531 225.546875 146.296875 C 224.507812 147.332031 223.1875 148.21875 221.894531 148.902344 C 220.769531 149.496094 219.546875 149.796875 218.410156 150.34375 C 217.382812 150.835938 216.398438 151.417969 215.46875 152.082031 C 215.011719 152.40625 214.5625 152.746094 214.136719 153.109375 C 213.621094 153.546875 213.222656 154.179688 212.78125 154.691406 C 212.65625 153.875 212.65625 153.058594 212.535156 152.25 C 212.367188 151.132812 212.398438 149.984375 212.496094 148.863281 C 212.691406 146.648438 213.25 143.90625 214.152344 140.714844 C 214.871094 138.160156 215.441406 136.144531 218.777344 135.933594 C 220.78125 135.804688 223.097656 136.515625 223.953125 138.378906 Z M 216.191406 188.089844 C 216.152344 188.539062 215.902344 188.964844 215.457031 189.359375 C 214.152344 190.5 211.625 190.257812 210.304688 189.644531 C 208.625 188.863281 207.25 187.496094 206.238281 186.386719 C 205.558594 185.640625 204.960938 184.796875 204.472656 183.878906 C 203.96875 182.941406 203.542969 181.953125 203.085938 180.992188 C 202.890625 180.578125 202.691406 180.148438 202.679688 179.691406 C 202.675781 179.625 210.894531 179.460938 211.671875 179.480469 C 213.359375 179.527344 215.167969 179.566406 216.785156 180.171875 C 218.390625 180.773438 220.296875 182.480469 219.605469 184.394531 C 219.214844 185.472656 218.035156 186.058594 216.910156 186.265625 C 216.695312 186.304688 216.472656 186.339844 216.304688 186.46875 C 215.714844 186.929688 216.238281 187.558594 216.191406 188.089844 Z M 194.183594 156.253906 C 194.097656 157.226562 193.589844 158.195312 192.710938 159.058594 C 191.769531 159.988281 190.59375 160.601562 189.46875 161.152344 C 189.035156 161.363281 188.609375 161.589844 188.191406 161.824219 C 187.304688 162.316406 186.441406 162.851562 185.574219 163.382812 C 184.492188 164.050781 183.382812 164.738281 182.257812 165.332031 C 181.816406 165.570312 181.507812 165.824219 181.132812 166.113281 C 180.859375 164.007812 181.03125 161.742188 180.988281 159.613281 C 180.957031 158.003906 180.925781 156.378906 181.210938 154.789062 C 181.597656 152.65625 182.828125 149.703125 185.277344 149.347656 C 187.507812 149.023438 189.363281 150.945312 189.054688 153.148438 C 189.976562 153.195312 190.792969 152.878906 191.722656 153.023438 C 192.53125 153.152344 193.328125 153.550781 193.742188 154.285156 C 194.09375 154.910156 194.242188 155.574219 194.183594 156.253906 Z M 174.628906 202.179688 C 174.546875 203.105469 174.066406 203.808594 173.195312 204.277344 C 171.75 205.054688 169.675781 204.546875 168.359375 203.742188 C 167.125 202.988281 165.941406 201.691406 164.847656 199.882812 C 163.761719 198.09375 163.230469 196.054688 162.988281 193.992188 C 162.875 193.007812 162.898438 192.027344 162.839844 191.054688 C 162.832031 190.898438 162.574219 189.050781 162.542969 189.046875 C 165.453125 189.796875 168.445312 190.339844 171.324219 191.199219 C 174.035156 192.011719 178.433594 193.632812 177.210938 197.480469 C 177.03125 198.050781 176.640625 198.675781 176.105469 198.976562 C 175.660156 199.226562 174.910156 199.066406 174.597656 199.519531 C 174.199219 200.105469 174.6875 201.488281 174.628906 202.179688 Z M 160.359375 159.734375 C 160.347656 160.207031 160.035156 160.855469 160.605469 161.132812 C 161.1875 161.414062 161.925781 161.28125 162.421875 161.75 C 162.988281 162.28125 162.921875 163.15625 162.734375 163.839844 C 162.292969 165.441406 161.214844 166.816406 159.902344 167.832031 C 158.589844 168.847656 157.046875 169.527344 155.472656 170.058594 C 154.378906 170.425781 153.261719 170.726562 152.128906 170.957031 C 151.050781 171.175781 150.027344 171.605469 148.984375 171.976562 C 149.707031 171.71875 149.78125 169.707031 149.867188 169.125 C 150.070312 167.730469 150.265625 166.296875 150.390625 164.902344 C 150.535156 164.117188 150.683594 163.3125 151 162.535156 C 151.792969 160.582031 153.160156 158.777344 154.648438 157.703125 C 155.957031 156.765625 157.953125 156.582031 159.191406 157.289062 C 160.210938 157.867188 160.390625 158.765625 160.359375 159.734375 Z M 86.046875 169.347656 C 86.023438 169.644531 86.175781 169.988281 86.570312 170.046875 C 89.332031 170.453125 91.957031 171.464844 94.496094 172.445312 C 96.351562 173.160156 98.265625 173.894531 100.199219 174.382812 C 103.609375 175.246094 107.039062 175.851562 111.140625 176.496094 C 116.613281 177.355469 122.109375 178.316406 127.429688 179.25 C 130.476562 179.785156 133.464844 180.308594 136.457031 180.816406 C 142.183594 181.785156 147.253906 182.363281 151.953125 182.578125 C 155.597656 184.820312 158.785156 186.886719 161.449219 189.675781 C 161.136719 195.644531 163.300781 202.785156 168.921875 205.476562 C 170.488281 206.226562 172.417969 206.148438 173.957031 205.273438 C 175.175781 204.582031 175.933594 203.496094 176.039062 202.296875 C 176.082031 201.804688 176.019531 201.292969 175.851562 200.777344 L 175.835938 200.742188 L 175.824219 200.621094 L 175.871094 200.484375 C 176.335938 200.160156 176.667969 200.011719 176.933594 199.890625 C 177.765625 199.507812 178.3125 199.257812 178.609375 197.828125 C 178.644531 197.648438 178.671875 197.464844 178.6875 197.285156 C 178.820312 195.78125 178.273438 194.191406 177.230469 193.035156 C 175.734375 191.378906 173.554688 190.21875 170.570312 189.492188 C 169.652344 189.269531 168.71875 189.078125 167.789062 188.890625 C 165.894531 188.503906 163.984375 188.113281 162.164062 187.445312 C 160.3125 186.765625 158.734375 185.675781 157.09375 184.628906 C 156.160156 184.035156 155.226562 183.4375 154.296875 182.84375 C 155.503906 182.554688 156.878906 182.675781 158.113281 182.644531 C 159.492188 182.609375 160.871094 182.539062 162.25 182.433594 C 164.945312 182.222656 167.625 181.867188 170.28125 181.363281 C 173.046875 180.832031 175.777344 180.144531 178.464844 179.296875 C 181.285156 178.40625 184.25 177.332031 187.519531 176.015625 L 188.28125 176.03125 C 191.710938 176.28125 194.945312 176.519531 198.324219 178.117188 C 199.113281 178.492188 199.867188 178.945312 200.59375 179.378906 L 201.128906 179.699219 C 201.917969 180.167969 202.300781 181.351562 202.640625 182.394531 C 202.785156 182.828125 202.910156 183.214844 203.046875 183.503906 C 203.679688 184.832031 204.398438 186.023438 205.175781 187.039062 C 206.453125 188.703125 208.632812 190.8125 211.75 191.390625 C 213.425781 191.707031 214.988281 191.429688 216.039062 190.632812 C 216.804688 190.050781 217.257812 189.230469 217.34375 188.257812 C 217.363281 188.027344 217.363281 187.78125 217.339844 187.527344 L 217.308594 187.167969 L 217.671875 187.148438 C 219.609375 187.054688 221.179688 185.765625 221.320312 184.148438 C 221.402344 183.207031 221.109375 181.679688 220.253906 180.796875 C 218.382812 178.847656 215.59375 178.242188 212.410156 177.980469 C 210.867188 177.855469 209.300781 178.070312 207.785156 178.273438 C 206.878906 178.398438 205.96875 178.523438 205.0625 178.578125 C 202.703125 178.730469 200.78125 177.941406 198.691406 176.980469 C 195.964844 175.71875 193.570312 175.332031 191.386719 175.101562 L 190.0625 174.960938 L 191.285156 174.4375 C 194.753906 172.945312 198.246094 171.339844 201.621094 169.789062 C 205.855469 167.84375 210.203125 165.84375 214.535156 164.050781 L 214.714844 164.023438 C 218.910156 164.382812 222.660156 165.371094 225.859375 166.964844 L 225.894531 166.980469 L 225.988281 167.054688 L 226.050781 167.175781 C 226.019531 167.53125 225.996094 167.734375 225.976562 167.941406 C 225.570312 172.570312 228.417969 177.515625 231.421875 180.363281 C 233 181.855469 235.203125 182.554688 237.164062 182.191406 C 238.738281 181.898438 239.988281 180.929688 240.679688 179.46875 L 240.699219 179.429688 L 240.777344 179.328125 L 240.910156 179.265625 L 241.230469 179.320312 C 243.890625 179.425781 245.617188 178.070312 245.828125 175.683594 C 245.984375 173.894531 245.199219 171.863281 243.769531 170.386719 C 241.515625 168.058594 238.203125 167.324219 235.910156 166.972656 C 235.289062 166.878906 234.671875 166.777344 234.050781 166.675781 C 232.234375 166.378906 230.378906 166.078125 228.554688 165.941406 C 226.835938 165.8125 225.152344 165.257812 223.730469 164.734375 C 223.535156 164.664062 223.285156 164.5625 222.992188 164.445312 C 222.132812 164.097656 218.003906 163.273438 216.890625 163.171875 C 217.023438 163.183594 217.476562 162.8125 217.625 162.742188 C 217.894531 162.617188 218.164062 162.566406 218.445312 162.480469 C 219.148438 162.269531 219.835938 161.953125 220.527344 161.703125 C 221.90625 161.203125 223.292969 160.722656 224.6875 160.265625 C 227.417969 159.375 230.171875 158.574219 232.957031 157.875 C 235.785156 157.164062 238.640625 156.558594 241.519531 156.066406 C 241.738281 156.085938 241.792969 156.089844 241.835938 156.085938 C 248.054688 155.238281 253.417969 157.3125 258.71875 162.621094 C 260.265625 170.128906 263.144531 174.613281 267.296875 176 C 269.226562 176.644531 271.40625 176.449219 272.851562 175.503906 C 273.785156 174.894531 274.324219 174.03125 274.417969 173.003906 C 274.441406 172.71875 274.429688 172.414062 274.386719 172.101562 L 274.328125 171.710938 L 274.726562 171.707031 C 276.753906 171.675781 278.222656 170.464844 278.378906 168.695312 C 278.476562 167.582031 278.058594 166.398438 277.160156 165.277344 C 274.453125 161.882812 269.0625 161.539062 265.496094 161.3125 C 265.003906 161.28125 264.511719 161.257812 264.015625 161.242188 C 263.03125 161.203125 262.136719 161.171875 261.257812 161.066406 C 259.957031 160.914062 258.484375 160.679688 257.4375 159.835938 C 257.117188 159.578125 256.804688 159.316406 256.5 159.058594 C 255.621094 158.3125 254.792969 157.617188 253.789062 157.050781 C 252.96875 156.585938 252.109375 156.199219 251.230469 155.871094 C 250.320312 155.535156 249.351562 155.402344 248.4375 155.046875 C 252.347656 154.664062 256.355469 154.527344 260.289062 154.617188 C 264.6875 154.703125 269.101562 155.382812 273.371094 156.039062 C 275.011719 156.292969 276.589844 156.539062 278.171875 156.75 C 282.890625 157.390625 287.75 157.597656 293.039062 157.378906 L 293.371094 157.367188 C 294.882812 157.308594 296.3125 157.253906 297.402344 156.195312 C 298.003906 155.605469 298.371094 154.835938 298.445312 154.027344 C 298.484375 153.554688 298.429688 153.078125 298.269531 152.617188 C 297.800781 151.222656 296.394531 150.078125 294.507812 149.546875 L 294.46875 149.535156 L 294.351562 149.472656 L 294.265625 149.347656 L 294.273438 149.019531 C 294.382812 147.773438 294.058594 146.75 293.308594 145.972656 C 292.3125 144.9375 290.628906 144.421875 288.570312 144.523438 C 285.246094 144.683594 282.699219 146.816406 280.234375 148.878906 C 279.34375 149.625 278.421875 150.394531 277.464844 151.066406 C 275.953125 152.132812 274.535156 152.941406 273.253906 153.46875 C 271.171875 154.328125 268.96875 154.082031 266.835938 153.84375 C 266.207031 153.773438 265.582031 153.703125 264.960938 153.660156 C 261.6875 153.441406 258.4375 153.375 255.300781 153.460938 C 254.589844 153.480469 253.875 153.511719 253.167969 153.546875 C 247.246094 153.847656 241.066406 154.742188 234.796875 156.203125 L 233.527344 156.5 L 234.480469 155.609375 C 235.816406 154.363281 236.910156 152.601562 237.789062 151.183594 L 238.117188 150.660156 C 238.355469 150.277344 238.589844 149.890625 238.820312 149.507812 C 239.257812 148.785156 239.640625 148.15625 240.0625 147.515625 L 240.128906 147.445312 L 240.234375 147.390625 C 241.78125 147.382812 243.339844 147.53125 244.996094 147.6875 C 249.839844 148.148438 255.335938 148.671875 258.289062 145.363281 C 259.359375 144.164062 259.980469 142.933594 260.078125 141.804688 C 260.222656 140.171875 259.242188 138.859375 257.386719 138.203125 L 257 138.066406 L 257.195312 137.707031 C 257.34375 137.441406 257.429688 137.164062 257.453125 136.878906 C 257.523438 136.097656 257.125 135.230469 256.328125 134.4375 C 255.078125 133.195312 253.121094 132.386719 251.671875 132.515625 C 248.742188 132.777344 246.226562 135.457031 244.203125 137.613281 L 243.8125 138.027344 C 241.375 140.609375 240.304688 143.140625 239.160156 146.179688 C 238.128906 148.917969 236.71875 151.441406 235.082031 153.476562 C 233.4375 155.527344 231.15625 157.089844 228.824219 157.757812 C 228.164062 157.949219 227.5 158.144531 226.839844 158.347656 C 225.546875 158.738281 224.261719 159.152344 222.980469 159.585938 C 220.453125 160.441406 217.894531 161.386719 215.375 162.402344 C 212.894531 163.398438 210.246094 164.328125 207.949219 165.699219 C 207.636719 165.882812 207.292969 166.019531 206.9375 166.101562 C 207.058594 166.074219 207.34375 165.535156 207.4375 165.421875 C 207.632812 165.1875 207.859375 164.996094 208.066406 164.777344 C 208.78125 164.015625 209.359375 163.175781 209.882812 162.289062 C 210.421875 161.378906 210.949219 160.339844 211.542969 159.019531 C 211.652344 158.773438 211.757812 158.519531 211.859375 158.269531 C 212.195312 157.445312 212.535156 156.617188 213.097656 155.925781 C 214.492188 154.214844 216.140625 152.644531 217.914062 152.125 C 223.207031 150.578125 227.097656 147.464844 228.125 145.335938 C 228.4375 144.695312 228.621094 144.0625 228.675781 143.453125 C 228.761719 142.460938 228.492188 141.617188 227.917969 141.074219 C 227.390625 140.574219 226.625 140.367188 225.761719 140.488281 L 225.324219 140.554688 L 225.363281 140.117188 C 225.527344 138.246094 224.554688 136.996094 223.710938 136.277344 C 222.019531 134.828125 219.320312 134.25 217 134.828125 C 214.507812 135.449219 213.574219 138.25 212.890625 140.820312 C 212.277344 143.132812 211.875 145.257812 211.660156 147.320312 L 211.628906 147.660156 C 211.492188 149.179688 211.527344 150.65625 211.5625 152.222656 L 211.570312 152.574219 C 211.578125 152.972656 211.566406 153.359375 211.53125 153.738281 C 211.351562 155.792969 210.582031 157.628906 209.808594 159.332031 C 208.867188 161.40625 207.925781 162.972656 206.84375 164.257812 C 205.769531 165.523438 204.382812 166.453125 203.039062 167.355469 L 202.390625 167.792969 C 200.691406 168.949219 198.808594 169.789062 196.984375 170.601562 L 195.964844 171.054688 C 190.96875 173.292969 185.949219 175.476562 180.773438 177.269531 C 179.722656 177.636719 178.664062 177.984375 177.597656 178.316406 C 176.570312 178.636719 175.605469 179.101562 174.558594 179.367188 C 174.785156 179.308594 175.210938 178.636719 175.390625 178.457031 C 176.160156 177.6875 177.046875 176.878906 177.65625 175.984375 C 178.304688 175.027344 178.789062 173.945312 179.214844 172.878906 C 179.707031 171.644531 180.09375 170.402344 180.378906 169.453125 C 180.964844 167.507812 182.390625 166.703125 183.902344 165.847656 L 184.222656 165.664062 C 185.078125 165.175781 185.917969 164.660156 186.757812 164.144531 C 187.933594 163.425781 189.152344 162.675781 190.394531 162.019531 C 192.023438 161.160156 193.839844 160.097656 194.800781 158.371094 C 195.210938 157.644531 195.453125 156.867188 195.523438 156.058594 C 195.660156 154.503906 195.132812 153 194.109375 152.042969 C 193.230469 151.21875 192.042969 150.871094 190.769531 151.066406 L 190.726562 151.070312 L 190.59375 151.066406 L 190.46875 150.988281 C 189.828125 149.195312 188.691406 148.050781 187.21875 147.703125 C 185.75 147.359375 184.222656 147.878906 182.910156 149.175781 C 181.035156 151.035156 180.023438 153.425781 179.734375 156.707031 C 179.585938 158.40625 179.632812 160.191406 179.675781 161.917969 C 179.71875 163.671875 179.765625 165.476562 179.613281 167.171875 C 179.554688 167.871094 179.464844 168.511719 179.339844 169.125 C 179.074219 170.445312 178.371094 171.820312 177.753906 173.03125 L 177.660156 173.222656 C 176.667969 175.164062 175.273438 176.808594 173.265625 178.394531 C 170.933594 180.234375 168.570312 180.492188 165.835938 180.789062 C 165.835938 180.789062 164.367188 180.953125 163.832031 181.015625 C 162.207031 181.210938 160.554688 181.410156 158.945312 181.457031 C 158.152344 181.480469 157.359375 181.488281 156.5625 181.496094 C 155.527344 181.503906 154.5 181.515625 153.480469 181.558594 C 151.246094 181.660156 148.9375 181.324219 146.703125 181.003906 C 145.769531 180.871094 144.882812 180.742188 144.011719 180.644531 L 143.179688 180.554688 C 142.328125 180.46875 141.46875 180.285156 140.617188 180.226562 C 139.769531 180.164062 138.90625 180.164062 138.054688 180.125 C 137.964844 180.121094 137.847656 180.085938 137.859375 180 C 137.863281 179.960938 137.890625 179.929688 137.917969 179.90625 C 138.621094 179.265625 139.492188 178.785156 140.296875 178.285156 L 140.476562 178.171875 C 143.023438 176.59375 145.652344 174.960938 148.375 173.816406 C 149.863281 173.191406 151.394531 172.894531 152.878906 172.605469 C 154.074219 172.371094 155.265625 171.882812 156.445312 171.472656 C 159.210938 170.519531 161.648438 169.132812 163.238281 167.105469 C 164.078125 166.039062 164.648438 164.597656 164.765625 163.25 C 164.871094 162.070312 164.617188 161.109375 164.054688 160.539062 C 163.601562 160.082031 162.945312 159.882812 162.105469 159.949219 L 161.730469 159.980469 L 161.730469 159.601562 C 161.726562 157.890625 161.15625 156.816406 159.828125 156.007812 C 158.320312 155.089844 156.636719 155.101562 154.957031 156.042969 C 152.941406 157.167969 151.105469 159.289062 150.039062 161.71875 C 149.449219 163.070312 149.285156 164.488281 149.15625 165.941406 L 149.078125 166.871094 C 148.96875 168.078125 148.832031 169.355469 148.40625 170.574219 C 148.035156 171.058594 147.71875 171.429688 147.394531 171.800781 C 145.425781 174.058594 142.90625 175.484375 140.46875 176.867188 C 139.054688 177.667969 137.609375 178.484375 136.292969 179.445312 C 133.777344 179.136719 131.453125 178.726562 129.300781 178.332031 C 125.40625 177.625 121.476562 176.992188 117.675781 176.386719 C 114.128906 175.816406 110.566406 175.246094 107.027344 174.613281 C 103.199219 173.929688 99.113281 173.085938 95.175781 171.558594 L 94.113281 171.144531 C 91.632812 170.167969 89.285156 169.246094 86.636719 168.855469 C 86.476562 168.832031 86.347656 168.859375 86.246094 168.9375 C 86.136719 169.023438 86.0625 169.175781 86.046875 169.347656 " fill-opacity="1" fill-rule="nonzero"/></g></g></g><g clip-path="url(#5ff5174852)"><g clip-path="url(#f5b431389d)"><g clip-path="url(#87502f51b9)"><path fill="#0b4142" d="M 90.550781 64.285156 C 90.859375 64.179688 91.167969 64.074219 91.476562 63.964844 C 91.492188 64.015625 91.511719 64.070312 91.527344 64.121094 C 92.351562 64.203125 93.027344 65.527344 93.457031 67.210938 C 94.128906 69.847656 93.871094 73.59375 94.820312 77.160156 C 95.910156 81.269531 98.550781 84.832031 98.449219 88.203125 C 98.34375 91.820312 96.644531 94.523438 97.339844 97.464844 C 98.089844 100.648438 101.542969 105.25 104.347656 106.320312 C 105.71875 106.839844 108.1875 106.390625 109.738281 105.484375 C 111.328125 104.566406 111.367188 102.476562 113.621094 101.757812 C 114.984375 101.324219 116.582031 102.09375 118.09375 102.265625 C 119.679688 102.441406 121.078125 102.519531 122.570312 102.773438 C 120.550781 104.324219 117.605469 106.1875 117.015625 108.613281 C 116.683594 109.976562 117.226562 111.8125 116.691406 113.167969 C 116.050781 114.777344 114.140625 116.75 112.617188 118.328125 C 108.332031 122.761719 101.511719 125.445312 94.519531 124.734375 C 91.476562 129.796875 90.75 136.65625 83.320312 139.179688 C 82.671875 138.039062 84.320312 136.722656 83.558594 136.367188 C 81.667969 137.289062 78.910156 139.886719 76.738281 139.058594 C 76.425781 137.25 77.8125 136.265625 78.402344 134.898438 C 77.785156 135.238281 76.523438 135.9375 75.789062 135.796875 C 75.859375 133.785156 77.390625 132.15625 78.679688 130.703125 C 82.605469 126.28125 87.929688 122.289062 92.207031 118.019531 C 88.089844 117.042969 78.453125 116.867188 78.414062 109.964844 C 74.179688 109.304688 69.960938 107.257812 68.734375 101.34375 C 66.527344 99.867188 63.582031 98.929688 62.628906 96.105469 C 62.394531 95.410156 62.765625 94.429688 62.507812 93.757812 C 62.191406 92.933594 60.894531 92.058594 60.277344 91.28125 C 59.550781 90.363281 58.992188 89.519531 58.300781 88.546875 C 58.039062 87.785156 57.777344 87.019531 57.511719 86.257812 C 57.667969 83.589844 60.222656 86.023438 61.636719 87.226562 C 67.140625 91.929688 72.261719 95.929688 78.484375 98.667969 C 80.398438 99.511719 82.222656 100.09375 84.207031 100.796875 C 84.636719 100.945312 85.203125 101.632812 85.699219 101.132812 C 84.378906 97.539062 83.5625 94.488281 83.722656 91.398438 C 83.816406 89.496094 84.84375 87.609375 84.65625 86.125 C 84.546875 85.238281 84.027344 84.546875 83.816406 83.683594 C 82.726562 79.199219 84.144531 75.761719 87.175781 72.960938 C 86.609375 70.566406 87.414062 68.832031 89.292969 67.621094 C 89.46875 66.390625 89.890625 65.277344 90.550781 64.285156 Z M 85.15625 137.007812 C 87.3125 136.191406 88.28125 134.035156 89.230469 132.359375 C 92.265625 127.035156 94.496094 121.609375 98.726562 116.964844 C 97.777344 119.304688 96.15625 121.324219 95.386719 123.75 C 98.84375 123.714844 102.171875 123.550781 105.398438 122.347656 C 108.660156 121.136719 113.800781 116.160156 115.050781 113.902344 C 116.097656 112.003906 115.316406 109.765625 115.875 107.808594 C 116.417969 105.921875 118.835938 104.582031 120.160156 103.261719 C 117.554688 104.28125 116.0625 101.96875 113.832031 102.878906 C 112.894531 103.265625 112.542969 104.449219 111.84375 105.101562 C 106.207031 110.378906 99.585938 106.007812 97.109375 100.789062 C 94.003906 94.246094 98.570312 91.125 97.039062 85.101562 C 96.339844 82.359375 94.542969 80.183594 93.792969 77.683594 C 92.558594 73.558594 93.703125 69.113281 91.226562 65.246094 C 89.390625 65.953125 90.324219 68.199219 90.339844 69.652344 C 90.355469 71.394531 90.140625 73.058594 89.910156 74.410156 C 89.71875 72.492188 89.628906 70.625 89.300781 68.644531 C 87.609375 69.617188 88.523438 72.132812 88.625 74.167969 C 88.734375 76.347656 88.761719 78.675781 88.722656 80.453125 C 88.289062 78.417969 87.914062 76.414062 87.496094 74.386719 C 80.917969 78.90625 87.589844 90.007812 89.738281 98.375 C 87.703125 95.9375 86.714844 91.375 85.132812 88.007812 C 83.320312 93.5 87.105469 102.90625 90.328125 108.078125 C 89.710938 107.082031 88.929688 106.421875 88.351562 105.339844 C 82.265625 107.382812 91.640625 112.417969 92.535156 113.976562 C 90.800781 112.519531 86.535156 111.101562 85.394531 108.238281 C 84.878906 106.941406 84.960938 105.101562 87.011719 104.4375 C 86.835938 103.929688 86.660156 103.421875 86.484375 102.914062 C 78.964844 100.484375 71.203125 96.976562 65.214844 91.628906 C 63.242188 89.867188 61.441406 87.546875 58.804688 87.007812 C 61.171875 91.710938 64.875 95.085938 67.730469 97.933594 C 66.414062 96.890625 65.125 95.789062 63.75 94.867188 C 65.53125 99.640625 70.894531 100.757812 73.738281 103.378906 C 72.382812 102.929688 71.273438 101.976562 69.765625 101.84375 C 72.378906 109.6875 79.996094 108.742188 85.050781 110.75 C 83.230469 110.476562 81.355469 110.300781 79.496094 110.101562 C 79.4375 112.082031 80.441406 113.554688 81.429688 114.214844 C 84.613281 116.347656 90.867188 116.355469 94.253906 117.480469 C 89.820312 121.609375 85.140625 126.011719 80.886719 130.113281 C 79.441406 131.507812 77.582031 132.773438 76.964844 134.710938 C 80.222656 133.441406 82.179688 130.867188 84.683594 129.660156 C 82.15625 132.253906 79.160156 134.625 78.066406 137.914062 C 83.300781 137.003906 85.296875 132.753906 88.34375 130.789062 C 87.101562 132.773438 85.421875 134.550781 85.15625 137.007812 Z M 85.15625 137.007812 " fill-opacity="1" fill-rule="evenodd"/></g></g></g><g fill="#0b4142" fill-opacity="1"><g transform="translate(133.833178, 108.955392)"><g><path d="M 2.449219 0 L 4.894531 0 C 4.894531 0 4.867188 -7.375 4.867188 -14.628906 C 4.867188 -15.578125 5.261719 -16.128906 6.242188 -16.15625 L 6.488281 -16.15625 C 11.046875 -16.15625 16.464844 -3.183594 21.328125 0 L 24.941406 0 C 23.378906 -1.101562 20.746094 -3.792969 18.574219 -6.914062 C 14.382812 -12.914062 12.058594 -16.679688 8.140625 -16.679688 L 7.496094 -16.679688 C 6.578125 -16.679688 6.457031 -17.074219 7.191406 -17.625 L 23.992188 -30.601562 L 20.167969 -30.601562 C 16.15625 -26.746094 10.984375 -21.789062 6.027344 -17.472656 C 5.753906 -17.230469 5.539062 -17.136719 5.355469 -17.136719 C 5.050781 -17.136719 4.867188 -17.414062 4.867188 -17.992188 L 4.867188 -30.601562 L 2.449219 -30.601562 Z M 2.449219 0 "/></g></g></g><g fill="#0b4142" fill-opacity="1"><g transform="translate(159.375622, 108.955392)"><g><path d="M 16.800781 0.613281 C 25.214844 0.613281 32.101562 -5.753906 32.101562 -15.300781 C 32.101562 -24.847656 25.214844 -31.214844 16.800781 -31.214844 C 8.386719 -31.214844 1.53125 -24.847656 1.53125 -15.300781 C 1.53125 -5.753906 8.386719 0.613281 16.800781 0.613281 Z M 3.976562 -15.300781 C 3.976562 -24.480469 9.730469 -30.601562 16.800781 -30.601562 C 23.871094 -30.601562 29.652344 -24.480469 29.652344 -15.300781 C 29.652344 -6.121094 23.871094 0 16.800781 0 C 9.730469 0 3.976562 -6.121094 3.976562 -15.300781 Z M 3.976562 -15.300781 "/></g></g></g><g fill="#0b4142" fill-opacity="1"><g transform="translate(192.993761, 108.955392)"><g><path d="M 2.449219 0 L 5.019531 0 L 3.183594 -27.265625 C 3.152344 -27.785156 3.273438 -28.0625 3.488281 -28.0625 C 3.640625 -28.0625 3.855469 -27.910156 4.070312 -27.601562 C 11.691406 -16.832031 17.167969 -9.148438 23.65625 0 L 26.101562 0 L 26.101562 -30.601562 L 23.53125 -30.601562 L 25.367188 -3.335938 C 25.398438 -2.816406 25.277344 -2.539062 25.0625 -2.539062 C 24.910156 -2.539062 24.695312 -2.691406 24.480469 -3 C 17.503906 -12.851562 11.167969 -21.789062 4.957031 -30.601562 L 2.449219 -30.601562 Z M 2.449219 0 "/></g></g></g><g fill="#0b4142" fill-opacity="1"><g transform="translate(221.534006, 108.955392)"><g><path d="M 2.449219 0 L 4.894531 0 C 4.894531 0 4.867188 -7.375 4.867188 -14.628906 C 4.867188 -15.578125 5.261719 -16.128906 6.242188 -16.15625 L 6.488281 -16.15625 C 11.046875 -16.15625 16.464844 -3.183594 21.328125 0 L 24.941406 0 C 23.378906 -1.101562 20.746094 -3.792969 18.574219 -6.914062 C 14.382812 -12.914062 12.058594 -16.679688 8.140625 -16.679688 L 7.496094 -16.679688 C 6.578125 -16.679688 6.457031 -17.074219 7.191406 -17.625 L 23.992188 -30.601562 L 20.167969 -30.601562 C 16.15625 -26.746094 10.984375 -21.789062 6.027344 -17.472656 C 5.753906 -17.230469 5.539062 -17.136719 5.355469 -17.136719 C 5.050781 -17.136719 4.867188 -17.414062 4.867188 -17.992188 L 4.867188 -30.601562 L 2.449219 -30.601562 Z M 2.449219 0 "/></g></g></g><g fill="#0b4142" fill-opacity="1"><g transform="translate(247.07645, 108.955392)"><g><path d="M 3.304688 0 L 4.925781 -5.722656 C 5.203125 -6.703125 5.9375 -8.019531 6.609375 -8.507812 C 8.386719 -9.792969 10.3125 -10.40625 12.269531 -10.40625 C 15.730469 -10.40625 20.320312 -8.355469 21.820312 -4.988281 L 24.054688 0 L 26.746094 0 L 13.097656 -30.601562 L 10.40625 -30.601562 L 11.046875 -29.164062 L 0.613281 0 Z M 6.640625 -11.597656 L 10.984375 -26.714844 C 11.140625 -27.203125 11.324219 -27.449219 11.535156 -27.449219 C 11.71875 -27.449219 11.933594 -27.234375 12.117188 -26.808594 L 20.011719 -9.121094 C 20.378906 -8.292969 20.195312 -8.140625 19.492188 -8.722656 C 17.167969 -10.617188 14.230469 -11.996094 11.351562 -11.996094 C 10.007812 -11.996094 8.691406 -11.691406 7.464844 -11.015625 C 7.160156 -10.863281 6.945312 -10.773438 6.792969 -10.773438 C 6.519531 -10.773438 6.488281 -11.046875 6.640625 -11.597656 Z M 6.640625 -11.597656 "/></g></g></g><g fill="#0b4142" fill-opacity="1"><g transform="translate(273.90365, 108.955392)"><g><path d="M 1.835938 -30.601562 L 1.835938 -27.878906 C 4.34375 -28.980469 9.609375 -29.988281 10.773438 -29.988281 C 11.875 -29.988281 12.394531 -29.5625 12.394531 -27.910156 L 12.394531 0 L 14.839844 0 L 14.839844 -27.910156 C 14.839844 -29.5625 15.363281 -29.988281 16.464844 -29.988281 C 17.625 -29.988281 22.890625 -28.980469 25.398438 -27.878906 L 25.398438 -30.601562 Z M 1.835938 -30.601562 "/></g></g></g><g fill="#0b4142" fill-opacity="1"><g transform="translate(301.128519, 108.955392)"><g><path d="M 1.683594 -6.457031 C 1.683594 -2.265625 6.824219 0.613281 14.320312 0.613281 C 20.441406 0.613281 26.59375 -2.265625 26.59375 -8.507812 C 26.59375 -21.175781 4.316406 -14.6875 4.316406 -23.105469 C 4.316406 -27.96875 7.988281 -30.601562 13.769531 -30.601562 C 18.851562 -30.601562 23.472656 -28.09375 24.359375 -23.839844 C 25.246094 -24.144531 25.582031 -24.910156 25.582031 -25.859375 C 25.582031 -29.746094 19.15625 -31.214844 14.289062 -31.214844 C 8.570312 -31.214844 2.140625 -28.917969 2.140625 -22.953125 C 2.140625 -10.800781 24.390625 -19.09375 24.390625 -7.652344 C 24.390625 -2.601562 19.617188 0 14.320312 0 C 8.9375 0 4.039062 -3.367188 4.039062 -6.671875 C 4.039062 -7.621094 4.375 -8.386719 5.261719 -8.691406 C 4.835938 -9.058594 4.375 -9.210938 3.949219 -9.210938 C 2.753906 -9.210938 1.683594 -8.078125 1.683594 -6.457031 Z M 1.683594 -6.457031 "/></g></g></g><g fill="#0b4142" fill-opacity="1"><g transform="translate(329.118147, 108.955392)"><g><path d="M 14.046875 0.613281 C 19.308594 0.613281 23.777344 -0.949219 25.859375 -3.734375 L 25.859375 -30.601562 L 23.410156 -30.601562 L 23.410156 -7.007812 C 23.410156 -0.582031 17.015625 0 14.046875 0 C 11.046875 0 4.683594 -1.222656 4.683594 -7.652344 L 4.683594 -13.128906 C 4.683594 -15.394531 4.742188 -30.601562 4.742188 -30.601562 L 2.296875 -30.601562 L 2.296875 -8.9375 C 2.296875 -3.765625 5.355469 0.613281 14.046875 0.613281 Z M 14.046875 0.613281 "/></g></g></g><g fill="#0b4142" fill-opacity="1"><g transform="translate(194.381594, 68.920504)"><g><path d="M 1.1875 0 L 1.671875 -11.25 L 2.875 -11.25 L 7.25 -1.46875 L 11.65625 -11.25 L 12.84375 -11.25 L 13.265625 0 L 12.125 0 L 11.765625 -8.90625 L 7.734375 0 L 6.703125 0 L 2.71875 -8.875 L 2.328125 0 Z M 1.1875 0 "/></g></g></g><g fill="#0b4142" fill-opacity="1"><g transform="translate(210.93532, 68.920504)"><g><path d="M 9.015625 -11.25 L 4.953125 -5.078125 L 4.953125 0 L 3.734375 0 L 3.734375 -5.0625 L -0.359375 -11.25 L 1.015625 -11.25 L 4.40625 -6.140625 L 7.734375 -11.25 Z M 9.015625 -11.25 "/></g></g></g><g fill="#0b4142" fill-opacity="1"><g transform="translate(221.69128, 68.920504)"><g/></g></g><g fill="#0b4142" fill-opacity="1"><g transform="translate(227.378153, 68.920504)"><g><path d="M 8.65625 -11.25 L 8.546875 -10.1875 L 4.9375 -10.1875 L 4.9375 0 L 3.703125 0 L 3.703125 -10.1875 L 0.03125 -10.1875 L 0.03125 -11.25 Z M 8.65625 -11.25 "/></g></g></g><g fill="#0b4142" fill-opacity="1"><g transform="translate(238.102428, 68.920504)"><g><path d="M 13.375 -11.25 L 14.546875 -11.25 L 11.28125 0 L 9.859375 0 L 7.515625 -9.53125 L 4.734375 0 L 3.3125 0 L 0.515625 -11.25 L 1.765625 -11.25 L 4.09375 -1.4375 L 6.9375 -11.25 L 8.25 -11.25 L 10.625 -1.46875 Z M 13.375 -11.25 "/></g></g></g><g fill="#0b4142" fill-opacity="1"><g transform="translate(254.988806, 68.920504)"><g><path d="M 1.296875 0 L 1.296875 -11.25 L 2.515625 -11.25 L 2.515625 0 Z M 1.296875 0 "/></g></g></g><g fill="#0b4142" fill-opacity="1"><g transform="translate(260.881595, 68.920504)"><g><path d="M 8.65625 -11.25 L 8.546875 -10.1875 L 4.9375 -10.1875 L 4.9375 0 L 3.703125 0 L 3.703125 -10.1875 L 0.03125 -10.1875 L 0.03125 -11.25 Z M 8.65625 -11.25 "/></g></g></g><g fill="#0b4142" fill-opacity="1"><g transform="translate(271.605868, 68.920504)"><g><path d="M 8.65625 -11.25 L 8.546875 -10.1875 L 4.9375 -10.1875 L 4.9375 0 L 3.703125 0 L 3.703125 -10.1875 L 0.03125 -10.1875 L 0.03125 -11.25 Z M 8.65625 -11.25 "/></g></g></g><g fill="#0b4142" fill-opacity="1"><g transform="translate(282.330141, 68.920504)"><g><path d="M 7.8125 -10.203125 L 2.5 -10.203125 L 2.5 -6.25 L 7.671875 -6.25 L 7.671875 -5.203125 L 2.5 -5.203125 L 2.5 -1.046875 L 8.03125 -1.046875 L 7.9375 0 L 1.296875 0 L 1.296875 -11.25 L 7.8125 -11.25 Z M 7.8125 -10.203125 "/></g></g></g><g fill="#0b4142" fill-opacity="1"><g transform="translate(292.991045, 68.920504)"><g><path d="M 9.40625 -1.21875 L 9.6875 -0.265625 C 9.351562 -0.0234375 8.914062 0.09375 8.375 0.09375 C 7.925781 0.09375 7.515625 -0.0078125 7.140625 -0.21875 C 6.773438 -0.425781 6.414062 -0.785156 6.0625 -1.296875 L 3.96875 -4.40625 C 3.820312 -4.601562 3.65625 -4.769531 3.46875 -4.90625 C 3.28125 -5.039062 3.085938 -5.109375 2.890625 -5.109375 L 2.5 -5.109375 L 2.5 0 L 1.296875 0 L 1.296875 -11.25 L 4.46875 -11.25 C 5.726562 -11.25 6.691406 -10.976562 7.359375 -10.4375 C 8.023438 -9.894531 8.359375 -9.148438 8.359375 -8.203125 C 8.359375 -7.523438 8.191406 -6.957031 7.859375 -6.5 C 7.535156 -6.050781 7.09375 -5.710938 6.53125 -5.484375 C 5.96875 -5.253906 5.347656 -5.140625 4.671875 -5.140625 L 4.578125 -5.140625 C 4.867188 -4.984375 5.171875 -4.679688 5.484375 -4.234375 L 6.953125 -2.078125 C 7.148438 -1.765625 7.328125 -1.53125 7.484375 -1.375 C 7.640625 -1.21875 7.796875 -1.109375 7.953125 -1.046875 C 8.117188 -0.992188 8.328125 -0.96875 8.578125 -0.96875 C 8.734375 -0.96875 8.878906 -0.988281 9.015625 -1.03125 C 9.148438 -1.082031 9.28125 -1.144531 9.40625 -1.21875 Z M 4.375 -10.234375 L 2.5 -10.234375 L 2.5 -6.078125 L 4.234375 -6.078125 C 5.160156 -6.078125 5.875 -6.242188 6.375 -6.578125 C 6.882812 -6.910156 7.140625 -7.441406 7.140625 -8.171875 C 7.140625 -8.816406 6.914062 -9.320312 6.46875 -9.6875 C 6.03125 -10.050781 5.332031 -10.234375 4.375 -10.234375 Z M 4.375 -10.234375 "/></g></g></g><g fill="#0b4142" fill-opacity="1"><g transform="translate(213.679787, 131.265696)"><g><path d="M 2.5 0 L 1.296875 0 L 1.296875 -11.25 L 4.9375 -11.25 C 6.238281 -11.25 7.25 -10.96875 7.96875 -10.40625 C 8.695312 -9.84375 9.0625 -9.03125 9.0625 -7.96875 C 9.0625 -6.90625 8.691406 -6.066406 7.953125 -5.453125 C 7.210938 -4.847656 6.066406 -4.546875 4.515625 -4.546875 L 2.5 -4.546875 Z M 4.8125 -10.234375 L 2.5 -10.234375 L 2.5 -5.578125 L 4.578125 -5.578125 C 5.753906 -5.578125 6.59375 -5.773438 7.09375 -6.171875 C 7.601562 -6.578125 7.859375 -7.175781 7.859375 -7.96875 C 7.859375 -8.75 7.609375 -9.320312 7.109375 -9.6875 C 6.617188 -10.050781 5.851562 -10.234375 4.8125 -10.234375 Z M 4.8125 -10.234375 "/></g></g></g><g fill="#0b4142" fill-opacity="1"><g transform="translate(225.227794, 131.265696)"><g><path d="M 9.40625 -1.21875 L 9.6875 -0.265625 C 9.351562 -0.0234375 8.914062 0.09375 8.375 0.09375 C 7.925781 0.09375 7.515625 -0.0078125 7.140625 -0.21875 C 6.773438 -0.425781 6.414062 -0.785156 6.0625 -1.296875 L 3.96875 -4.40625 C 3.820312 -4.601562 3.65625 -4.769531 3.46875 -4.90625 C 3.28125 -5.039062 3.085938 -5.109375 2.890625 -5.109375 L 2.5 -5.109375 L 2.5 0 L 1.296875 0 L 1.296875 -11.25 L 4.46875 -11.25 C 5.726562 -11.25 6.691406 -10.976562 7.359375 -10.4375 C 8.023438 -9.894531 8.359375 -9.148438 8.359375 -8.203125 C 8.359375 -7.523438 8.191406 -6.957031 7.859375 -6.5 C 7.535156 -6.050781 7.09375 -5.710938 6.53125 -5.484375 C 5.96875 -5.253906 5.347656 -5.140625 4.671875 -5.140625 L 4.578125 -5.140625 C 4.867188 -4.984375 5.171875 -4.679688 5.484375 -4.234375 L 6.953125 -2.078125 C 7.148438 -1.765625 7.328125 -1.53125 7.484375 -1.375 C 7.640625 -1.21875 7.796875 -1.109375 7.953125 -1.046875 C 8.117188 -0.992188 8.328125 -0.96875 8.578125 -0.96875 C 8.734375 -0.96875 8.878906 -0.988281 9.015625 -1.03125 C 9.148438 -1.082031 9.28125 -1.144531 9.40625 -1.21875 Z M 4.375 -10.234375 L 2.5 -10.234375 L 2.5 -6.078125 L 4.234375 -6.078125 C 5.160156 -6.078125 5.875 -6.242188 6.375 -6.578125 C 6.882812 -6.910156 7.140625 -7.441406 7.140625 -8.171875 C 7.140625 -8.816406 6.914062 -9.320312 6.46875 -9.6875 C 6.03125 -10.050781 5.332031 -10.234375 4.375 -10.234375 Z M 4.375 -10.234375 "/></g></g></g><g fill="#0b4142" fill-opacity="1"><g transform="translate(236.522347, 131.265696)"><g><path d="M 6.015625 0.125 C 4.972656 0.125 4.066406 -0.09375 3.296875 -0.53125 C 2.535156 -0.96875 1.945312 -1.597656 1.53125 -2.421875 C 1.125 -3.242188 0.921875 -4.242188 0.921875 -5.421875 C 0.921875 -6.585938 1.148438 -7.625 1.609375 -8.53125 C 2.066406 -9.4375 2.695312 -10.140625 3.5 -10.640625 C 4.3125 -11.148438 5.253906 -11.40625 6.328125 -11.40625 C 7.304688 -11.40625 8.164062 -11.171875 8.90625 -10.703125 C 9.65625 -10.242188 10.234375 -9.597656 10.640625 -8.765625 C 11.054688 -7.941406 11.265625 -6.96875 11.265625 -5.84375 C 11.265625 -4.632812 11.035156 -3.582031 10.578125 -2.6875 C 10.128906 -1.789062 9.507812 -1.097656 8.71875 -0.609375 C 7.9375 -0.117188 7.035156 0.125 6.015625 0.125 Z M 6.015625 -1 C 6.804688 -1 7.5 -1.191406 8.09375 -1.578125 C 8.695312 -1.960938 9.164062 -2.519531 9.5 -3.25 C 9.84375 -3.976562 10.015625 -4.851562 10.015625 -5.875 C 10.015625 -6.769531 9.863281 -7.546875 9.5625 -8.203125 C 9.257812 -8.867188 8.832031 -9.378906 8.28125 -9.734375 C 7.738281 -10.097656 7.09375 -10.28125 6.34375 -10.28125 C 5.53125 -10.28125 4.804688 -10.078125 4.171875 -9.671875 C 3.546875 -9.265625 3.054688 -8.695312 2.703125 -7.96875 C 2.347656 -7.238281 2.171875 -6.390625 2.171875 -5.421875 C 2.171875 -4.003906 2.515625 -2.910156 3.203125 -2.140625 C 3.890625 -1.378906 4.828125 -1 6.015625 -1 Z M 6.015625 -1 "/></g></g></g><g fill="#0b4142" fill-opacity="1"><g transform="translate(250.779131, 131.265696)"><g><path d="M 7.5 -10.203125 L 2.5 -10.203125 L 2.5 -6.0625 L 7.34375 -6.0625 L 7.34375 -5.015625 L 2.5 -5.015625 L 2.5 0 L 1.296875 0 L 1.296875 -11.25 L 7.5 -11.25 Z M 7.5 -10.203125 "/></g></g></g><g fill="#0b4142" fill-opacity="1"><g transform="translate(260.521274, 131.265696)"><g><path d="M 1.296875 0 L 1.296875 -11.25 L 2.515625 -11.25 L 2.515625 0 Z M 1.296875 0 "/></g></g></g><g fill="#0b4142" fill-opacity="1"><g transform="translate(266.414062, 131.265696)"><g><path d="M 1.296875 0 L 1.296875 -11.25 L 2.515625 -11.25 L 2.515625 -1.0625 L 7.78125 -1.0625 L 7.671875 0 Z M 1.296875 0 "/></g></g></g><g fill="#0b4142" fill-opacity="1"><g transform="translate(276.156202, 131.265696)"><g><path d="M 7.8125 -10.203125 L 2.5 -10.203125 L 2.5 -6.25 L 7.671875 -6.25 L 7.671875 -5.203125 L 2.5 -5.203125 L 2.5 -1.046875 L 8.03125 -1.046875 L 7.9375 0 L 1.296875 0 L 1.296875 -11.25 L 7.8125 -11.25 Z M 7.8125 -10.203125 "/></g></g></g></svg>