<?xml version="1.0" encoding="UTF-8" standalone="no"?>
<!DOCTYPE svg PUBLIC "-//W3C//DTD SVG 1.1//EN" "http://www.w3.org/Graphics/SVG/1.1/DTD/svg11.dtd">
<svg xmlns="http://www.w3.org/2000/svg" version="1.1" viewBox="0 0 500 500">
<path fill="#ffffff" d="
  M 253.87 68.95
  Q 253.78 70.15 254.61 69.29
  Q 262.75 60.88 270.53 53.30
  Q 272.45 51.43 274.04 51.09
  Q 276.20 50.62 278.44 51.56
  Q 281.71 52.94 278.69 55.94
  L 262.61 71.90
  A 0.61 0.61 -38.5 0 0 262.52 72.67
  Q 268.74 82.50 275.42 92.02
  Q 277.19 94.53 277.50 95.85
  Q 278.36 99.46 273.00 99.25
  Q 270.16 99.14 268.00 95.73
  Q 261.24 85.04 253.89 73.96
  Q 253.59 73.51 253.55 74.05
  Q 252.89 83.01 252.39 91.44
  Q 252.20 94.60 251.37 95.88
  Q 249.68 98.51 246.00 96.75
  Q 243.77 95.69 244.11 92.82
  Q 244.29 91.30 244.30 91.15
  Q 245.32 72.19 246.99 53.27
  Q 247.49 47.61 252.81 49.69
  Q 255.13 50.59 254.86 53.28
  Q 254.72 54.65 254.72 54.72
  Q 254.41 62.18 253.87 68.95
  Z"
/>
<rect fill="#ffffff" x="-4.10" y="-23.95" transform="translate(215.77,75.46) rotate(-7.8)" width="8.20" height="47.90" rx="3.61"/>
<path fill="#ffffff" d="
  M 155.51 100.84
  Q 156.41 102.22 156.20 100.59
  L 152.46 71.42
  Q 152.16 69.11 153.98 67.68
  Q 156.59 65.64 158.94 66.90
  Q 160.09 67.51 162.02 70.11
  Q 170.14 81.05 178.32 91.95
  Q 179.16 93.07 178.89 91.70
  Q 176.40 79.19 174.12 66.11
  Q 174.11 66.03 173.64 64.05
  Q 172.77 60.29 175.74 58.68
  Q 177.64 57.65 179.36 58.22
  Q 181.25 58.85 181.52 61.23
  Q 181.67 62.56 181.69 62.66
  Q 185.05 82.19 188.20 101.76
  Q 188.75 105.18 185.66 106.54
  Q 182.05 108.12 179.71 105.03
  Q 170.12 92.35 161.24 80.17
  Q 160.21 78.76 160.44 80.49
  L 164.41 111.38
  Q 164.75 113.99 162.62 115.52
  Q 160.39 117.12 158.30 116.43
  Q 156.94 115.98 155.40 113.79
  Q 144.13 97.72 133.10 81.47
  Q 131.71 79.41 131.83 78.13
  Q 132.05 75.98 135.00 75.25
  Q 137.97 74.51 139.38 76.60
  Q 147.87 89.05 155.51 100.84
  Z"
/>
<path fill="#ffffff" d="
  M 302.69 69.69
  Q 312.73 57.39 327.44 62.56
  Q 337.42 66.07 340.60 75.32
  Q 342.97 82.24 341.16 90.27
  Q 339.42 97.99 334.06 104.06
  Q 328.51 110.36 320.81 111.16
  Q 313.84 111.88 307.00 108.33
  Q 297.45 103.36 295.98 92.22
  Q 295.21 86.36 297.02 80.41
  Q 298.86 74.38 302.69 69.69
  Z
  M 310.51 73.76
  Q 304.63 80.19 304.25 88.00
  Q 303.70 99.37 312.89 102.49
  Q 318.04 104.24 322.55 102.26
  Q 327.22 100.21 330.06 95.06
  Q 333.18 89.41 333.42 83.66
  Q 333.60 79.27 331.96 76.06
  Q 330.02 72.28 326.00 70.50
  Q 317.09 66.56 310.51 73.76
  Z"
/>
<path fill="#ffffff" d="
  M 372.75 103.95
  Q 364.43 114.74 355.44 126.44
  Q 353.27 129.26 350.52 127.90
  Q 347.36 126.35 347.92 123.71
  Q 348.17 122.51 350.04 120.06
  Q 361.49 104.97 373.43 89.59
  Q 374.87 87.73 377.08 88.54
  Q 381.18 90.04 381.66 93.83
  Q 381.68 93.98 381.32 100.17
  Q 380.42 115.65 379.31 130.46
  Q 379.17 132.36 380.30 130.83
  Q 387.92 120.51 395.84 110.44
  Q 395.89 110.38 396.91 108.84
  Q 398.07 107.09 399.99 106.93
  Q 401.65 106.79 403.15 107.93
  Q 406.19 110.24 403.31 114.06
  Q 383.69 140.17 379.00 146.00
  Q 377.37 148.03 375.32 147.03
  Q 373.82 146.31 372.68 144.95
  Q 371.02 142.97 371.25 139.50
  Q 372.33 123.00 373.66 104.30
  Q 373.77 102.62 372.75 103.95
  Z"
/>
<path fill="#ffffff" d="
  M 101.84 107.99
  Q 113.73 122.05 124.18 134.85
  Q 126.89 138.17 123.44 140.94
  Q 121.41 142.56 119.52 141.72
  Q 118.56 141.29 116.93 139.30
  Q 106.14 126.09 95.12 112.70
  A 0.63 0.62 -39.0 0 0 94.25 112.61
  L 85.90 119.32
  Q 84.05 120.80 82.19 119.32
  Q 78.36 116.25 82.09 113.11
  Q 91.98 104.81 101.96 96.63
  Q 105.01 94.12 105.18 94.02
  Q 107.77 92.49 109.77 94.93
  Q 110.98 96.41 110.59 97.96
  Q 110.19 99.53 108.56 100.81
  Q 104.79 103.77 101.94 106.37
  A 1.17 1.17 48.6 0 0 101.84 107.99
  Z"
/>
<path fill="#ffffff" d="
  M 213.69 168.56
  Q 209.66 164.39 208.25 159.56
  Q 206.85 154.72 208.22 149.45
  Q 209.80 143.38 214.74 139.83
  Q 220.08 135.99 226.37 136.15
  Q 232.83 136.32 238.38 141.22
  A 0.68 0.68 43.7 0 0 239.30 141.20
  Q 246.66 134.24 256.75 136.75
  Q 261.38 137.90 264.89 141.64
  Q 268.03 144.99 269.37 149.62
  Q 272.27 159.66 264.69 167.69
  Q 252.73 180.35 239.42 193.44
  A 0.78 0.77 -44.7 0 1 238.33 193.44
  Q 225.40 180.72 213.69 168.56
  Z"
/>
<path fill="#ffffff" d="
  M 500.00 352.56
  L 500.00 359.81
  Q 498.77 361.00 496.25 361.00
  Q 455.88 361.00 414.69 361.00
  A 0.91 0.91 -89.7 0 0 413.78 361.90
  Q 413.63 370.90 412.70 378.24
  Q 411.91 384.45 415.00 389.83
  Q 418.22 395.44 420.86 401.32
  Q 422.61 405.19 423.48 410.10
  Q 425.73 422.70 427.31 429.19
  Q 431.69 447.10 442.79 462.40
  Q 443.41 463.25 442.36 463.11
  Q 425.83 460.81 412.56 451.07
  Q 405.68 446.01 400.07 438.32
  Q 394.77 431.05 390.89 422.83
  Q 384.82 409.99 374.14 400.61
  Q 370.37 397.30 365.98 395.01
  Q 363.36 393.64 356.80 391.59
  Q 324.68 381.51 297.35 361.50
  A 2.60 2.57 -26.6 0 0 295.82 361.00
  Q 238.70 361.00 181.41 361.00
  Q 175.19 361.00 175.10 361.02
  Q 171.85 361.62 169.56 364.81
  Q 164.47 371.91 156.69 377.99
  Q 152.45 381.30 151.07 383.33
  Q 148.99 386.41 147.75 390.50
  Q 144.88 399.98 139.36 408.73
  Q 133.30 418.33 126.98 424.29
  Q 117.40 433.34 104.01 436.78
  Q 101.17 437.51 98.25 437.51
  A 1.07 0.80 -12.2 0 1 97.42 437.13
  Q 96.98 436.46 97.56 435.81
  Q 105.39 427.05 108.41 416.72
  Q 111.87 404.87 117.50 390.25
  Q 119.51 385.04 121.34 377.52
  Q 123.28 369.60 122.02 361.55
  A 0.60 0.58 -4.5 0 0 121.43 361.06
  Q 66.96 360.95 12.50 361.19
  Q 5.72 361.22 4.50 360.75
  Q 0.99 359.40 1.00 356.00
  Q 1.01 351.94 4.02 350.48
  Q 5.54 349.75 9.58 349.75
  Q 62.92 349.79 116.19 350.00
  Q 116.64 350.00 116.41 349.61
  Q 99.63 321.09 101.86 287.99
  Q 102.79 274.19 107.81 261.31
  Q 109.43 257.13 111.82 253.37
  Q 111.84 253.34 115.49 248.41
  Q 119.74 242.67 121.69 235.69
  Q 122.30 233.50 123.17 227.58
  Q 123.94 222.42 124.89 219.54
  Q 128.88 207.46 138.38 198.64
  Q 150.38 187.51 167.01 188.35
  Q 178.82 188.95 192.00 194.50
  Q 201.37 198.44 205.49 208.57
  A 0.86 0.85 68.3 0 0 206.58 209.04
  Q 207.77 208.58 209.49 208.81
  Q 213.90 209.39 218.38 209.95
  A 0.33 0.32 19.4 0 1 218.63 210.45
  L 211.72 220.95
  A 1.16 1.02 -38.6 0 0 211.56 221.85
  Q 219.74 250.06 217.90 278.76
  Q 216.37 302.52 206.70 324.23
  Q 200.75 337.59 189.56 347.81
  Q 188.84 348.47 188.17 348.77
  A 1.07 0.53 -17.6 0 0 187.52 349.40
  Q 187.47 349.91 188.33 349.82
  Q 188.98 349.75 189.17 349.75
  Q 234.47 349.75 281.41 349.75
  Q 282.34 349.75 281.64 349.14
  Q 265.28 334.77 256.23 316.42
  Q 251.72 307.30 249.75 297.57
  Q 244.27 270.62 255.34 243.53
  A 1.51 1.47 37.9 0 0 255.14 242.08
  L 247.40 231.80
  A 0.38 0.38 66.7 0 1 247.64 231.19
  L 261.95 229.01
  A 1.11 1.08 11.0 0 0 262.70 228.52
  Q 264.99 224.90 267.39 221.35
  Q 270.21 217.16 272.87 214.81
  Q 285.97 203.24 304.32 207.64
  Q 314.51 210.09 323.94 218.31
  Q 332.38 225.68 335.56 237.19
  Q 337.76 245.11 342.21 255.02
  Q 347.02 265.74 356.87 272.09
  Q 368.62 279.66 379.08 288.93
  Q 406.24 313.03 411.26 349.31
  A 0.51 0.50 86.1 0 0 411.76 349.75
  Q 453.50 349.75 495.25 349.80
  Q 498.49 349.81 500.00 352.56
  Z
  M 187.38 217.15
  A 6.13 6.13 0.0 0 0 181.25 211.02
  A 6.13 6.13 0.0 0 0 175.12 217.15
  A 6.13 6.13 0.0 0 0 181.25 223.28
  A 6.13 6.13 0.0 0 0 187.38 217.15
  Z
  M 294.4680 230.9161
  A 5.51 5.36 -8.6 0 0 288.2185 226.4403
  A 5.51 5.36 -8.6 0 0 283.5720 232.5639
  A 5.51 5.36 -8.6 0 0 289.8215 237.0397
  A 5.51 5.36 -8.6 0 0 294.4680 230.9161
  Z"
/>
</svg>
